<mxfile host="app.diagrams.net" modified="2023-04-09T17:57:24.855Z" agent="Mozilla/5.0 (Windows NT 10.0; Win64; x64) AppleWebKit/537.36 (KHTML, like Gecko) Chrome/112.0.0.0 Safari/537.36" etag="Ak6MXA9wIPVQ5lM0SNYI" version="21.1.4" type="github">
  <diagram name="第 1 页" id="yEmyDrirjGPnJzBnCa3G">
    <mxGraphModel dx="724" dy="373" grid="1" gridSize="10" guides="1" tooltips="1" connect="1" arrows="1" fold="1" page="1" pageScale="1" pageWidth="1169" pageHeight="827" math="0" shadow="0">
      <root>
        <mxCell id="0" />
        <mxCell id="1" parent="0" />
        <mxCell id="_eXdS_FXE4OZuwJNZrEz-3" value="" style="edgeStyle=orthogonalEdgeStyle;rounded=0;orthogonalLoop=1;jettySize=auto;html=1;" edge="1" parent="1" source="_eXdS_FXE4OZuwJNZrEz-1" target="_eXdS_FXE4OZuwJNZrEz-2">
          <mxGeometry relative="1" as="geometry" />
        </mxCell>
        <mxCell id="_eXdS_FXE4OZuwJNZrEz-1" value="阅读有关支持访问策略更新的MA-ABE方案的文献" style="rounded=0;whiteSpace=wrap;html=1;" vertex="1" parent="1">
          <mxGeometry x="70" y="190" width="110" height="60" as="geometry" />
        </mxCell>
        <mxCell id="_eXdS_FXE4OZuwJNZrEz-2" value="改进MA-ABE算法" style="whiteSpace=wrap;html=1;rounded=0;" vertex="1" parent="1">
          <mxGeometry x="220" y="190" width="120" height="60" as="geometry" />
        </mxCell>
      </root>
    </mxGraphModel>
  </diagram>
</mxfile>
